<svg xmlns="http://www.w3.org/2000/svg"
      xmlns:xlink="http://www.w3.org/1999/xlink">
      <style>:root>svg{display:none}:root>svg:target{display:block}</style>

      <svg id="menu-close" xmlns="http://www.w3.org/2000/svg"  viewBox="0 0 24 24"  stroke-width="2" stroke-linecap="round" stroke-linejoin="round"  aria-hidden="true"><path d="M18 6 6 18"></path><path d="m6 6 12 12"></path></svg>
      <svg id="menu-burger" xmlns="http://www.w3.org/2000/svg" viewBox="0 0 24 24" stroke-width="2" stroke-linecap="round" stroke-linejoin="round" aria-hidden="true"><path d="M4 12h16"></path><path d="M4 18h16"></path><path d="M4 6h16"></path></svg>

      <svg id="phone" xmlns="http://www.w3.org/2000/svg"  viewBox="0 0 24 24"  stroke-width="2" stroke-linecap="round" stroke-linejoin="round" aria-hidden="true"><path d="M13.832 16.568a1 1 0 0 0 1.213-.303l.355-.465A2 2 0 0 1 17 15h3a2 2 0 0 1 2 2v3a2 2 0 0 1-2 2A18 18 0 0 1 2 4a2 2 0 0 1 2-2h3a2 2 0 0 1 2 2v3a2 2 0 0 1-.8 1.6l-.468.351a1 1 0 0 0-.292 1.233 14 14 0 0 0 6.392 6.384"></path></svg>
      
</svg>



